<svg id="visual" viewBox="0 0 960 540" width="960" height="540" xmlns="http://www.w3.org/2000/svg" xmlns:xlink="http://www.w3.org/1999/xlink" version="1.1"><rect x="0" y="0" width="960" height="540" fill="#001220"></rect><path d="M0 358L22.8 352.3C45.7 346.7 91.3 335.3 137 340.7C182.7 346 228.3 368 274 370.7C319.7 373.3 365.3 356.7 411.2 357.3C457 358 503 376 548.8 372.2C594.7 368.3 640.3 342.7 686 331C731.7 319.3 777.3 321.7 823 335C868.7 348.3 914.3 372.7 937.2 384.8L960 397L960 541L937.2 541C914.3 541 868.7 541 823 541C777.3 541 731.7 541 686 541C640.3 541 594.7 541 548.8 541C503 541 457 541 411.2 541C365.3 541 319.7 541 274 541C228.3 541 182.7 541 137 541C91.3 541 45.7 541 22.8 541L0 541Z" fill="#082e68"></path><path d="M0 358L22.8 361.7C45.7 365.3 91.3 372.7 137 378.2C182.7 383.7 228.3 387.3 274 392.5C319.7 397.7 365.3 404.3 411.2 410.5C457 416.7 503 422.3 548.8 421.5C594.7 420.7 640.3 413.3 686 413.2C731.7 413 777.3 420 823 412.8C868.7 405.7 914.3 384.3 937.2 373.7L960 363L960 541L937.2 541C914.3 541 868.7 541 823 541C777.3 541 731.7 541 686 541C640.3 541 594.7 541 548.8 541C503 541 457 541 411.2 541C365.3 541 319.7 541 274 541C228.3 541 182.7 541 137 541C91.3 541 45.7 541 22.8 541L0 541Z" fill="#0e2451"></path><path d="M0 408L22.8 409.3C45.7 410.7 91.3 413.3 137 421.8C182.7 430.3 228.3 444.7 274 443.2C319.7 441.7 365.3 424.3 411.2 422.2C457 420 503 433 548.8 441.8C594.7 450.7 640.3 455.3 686 455.8C731.7 456.3 777.3 452.7 823 443C868.7 433.3 914.3 417.7 937.2 409.8L960 402L960 541L937.2 541C914.3 541 868.7 541 823 541C777.3 541 731.7 541 686 541C640.3 541 594.7 541 548.8 541C503 541 457 541 411.2 541C365.3 541 319.7 541 274 541C228.3 541 182.7 541 137 541C91.3 541 45.7 541 22.8 541L0 541Z" fill="#0f1b3c"></path><path d="M0 435L22.8 439.5C45.7 444 91.3 453 137 456.8C182.7 460.7 228.3 459.3 274 459.3C319.7 459.3 365.3 460.7 411.2 460.5C457 460.3 503 458.7 548.8 463C594.7 467.3 640.3 477.7 686 476.8C731.7 476 777.3 464 823 462.8C868.7 461.7 914.3 471.3 937.2 476.2L960 481L960 541L937.2 541C914.3 541 868.7 541 823 541C777.3 541 731.7 541 686 541C640.3 541 594.7 541 548.8 541C503 541 457 541 411.2 541C365.3 541 319.7 541 274 541C228.3 541 182.7 541 137 541C91.3 541 45.7 541 22.8 541L0 541Z" fill="#0e1128"></path><path d="M0 476L22.8 478.3C45.7 480.7 91.3 485.3 137 487C182.7 488.7 228.3 487.3 274 489C319.7 490.7 365.3 495.3 411.2 499.2C457 503 503 506 548.8 503.5C594.7 501 640.3 493 686 488.3C731.7 483.7 777.3 482.3 823 482.5C868.7 482.7 914.3 484.3 937.2 485.2L960 486L960 541L937.2 541C914.3 541 868.7 541 823 541C777.3 541 731.7 541 686 541C640.3 541 594.7 541 548.8 541C503 541 457 541 411.2 541C365.3 541 319.7 541 274 541C228.3 541 182.7 541 137 541C91.3 541 45.7 541 22.8 541L0 541Z" fill="#030216"></path></svg>